<svg width="18" height="22" viewBox="0 0 18 22" fill="none" xmlns="http://www.w3.org/2000/svg">
<path d="M3.05976 21.4743C2.47775 21.4743 1.97969 21.283 1.56558 20.9004C1.15077 20.5171 0.943359 20.0565 0.943359 19.5188V9.74085C0.943359 9.20306 1.15077 8.74253 1.56558 8.35923C1.97969 7.97659 2.47775 7.78527 3.05976 7.78527H4.11795V5.82969C4.11795 4.47708 4.634 3.32394 5.6661 2.37026C6.69749 1.41724 7.94511 0.940735 9.40895 0.940735C10.8728 0.940735 12.1208 1.41724 13.1529 2.37026C14.1842 3.32394 14.6999 4.47708 14.6999 5.82969V7.78527H15.7581C16.3401 7.78527 16.8386 7.97659 17.2534 8.35923C17.6675 8.74253 17.8745 9.20306 17.8745 9.74085V19.5188C17.8745 20.0565 17.6675 20.5171 17.2534 20.9004C16.8386 21.283 16.3401 21.4743 15.7581 21.4743H3.05976ZM9.40895 16.5854C9.99096 16.5854 10.4894 16.3941 10.9042 16.0114C11.3183 15.6281 11.5253 15.1676 11.5253 14.6298C11.5253 14.092 11.3183 13.6315 10.9042 13.2482C10.4894 12.8655 9.99096 12.6742 9.40895 12.6742C8.82694 12.6742 8.32888 12.8655 7.91477 13.2482C7.49996 13.6315 7.29255 14.092 7.29255 14.6298C7.29255 15.1676 7.49996 15.6281 7.91477 16.0114C8.32888 16.3941 8.82694 16.5854 9.40895 16.5854ZM6.23435 7.78527H12.5835V5.82969C12.5835 5.01486 12.2749 4.32226 11.6576 3.75188C11.0403 3.1815 10.2908 2.89632 9.40895 2.89632C8.52711 2.89632 7.77756 3.1815 7.16027 3.75188C6.54299 4.32226 6.23435 5.01486 6.23435 5.82969V7.78527Z" fill="white"/>
</svg>
