<svg width="18" height="18" viewBox="0 0 18 18" fill="none" xmlns="http://www.w3.org/2000/svg">
<path d="M13.1714 10.6142C14.3834 10.6142 15.5485 11.0491 16.4239 11.8282C17.2992 12.6073 17.8172 13.6704 17.8698 14.7957L17.8745 14.9855V15.8597C17.8747 16.3009 17.6954 16.7257 17.3727 17.0492C17.05 17.3727 16.6077 17.5708 16.1344 17.6039L15.9933 17.6082H2.8246C2.34999 17.6084 1.89285 17.4418 1.54484 17.1418C1.19683 16.8419 0.983659 16.4307 0.948063 15.9909L0.943359 15.8597V14.9855C0.943429 13.859 1.41136 12.7761 2.24956 11.9625C3.08777 11.1489 4.23154 10.6674 5.44235 10.6185L5.64646 10.6142H13.1714ZM9.40895 0.123047C10.6563 0.123047 11.8525 0.583593 12.7345 1.40337C13.6165 2.22315 14.112 3.335 14.112 4.49435C14.112 5.65369 13.6165 6.76554 12.7345 7.58532C11.8525 8.4051 10.6563 8.86564 9.40895 8.86564C8.16161 8.86564 6.96535 8.4051 6.08335 7.58532C5.20135 6.76554 4.70584 5.65369 4.70584 4.49435C4.70584 3.335 5.20135 2.22315 6.08335 1.40337C6.96535 0.583593 8.16161 0.123047 9.40895 0.123047Z" fill="white"/>
</svg>
